# xmcd CD database file
#
# Track frame offsets:
#	182
#	17090
#	32882
#	47347
#	61682
#	78787
#	93862
#	105907
#	120825
#	135642
#	150357
#	165380
#	180805
#	197062
#
# Disc length: 2837 seconds
#
# Revision: 2
# Processed by: cddbd v1.5.2PL0 Copyright (c) Steve Scherf et al.
# Submitted via: CDex 1.70beta2
#
DISCID=8a0b130e
DTITLE=Hansi Hinterseer - Amore Mio
DYEAR=2000
DGENRE=Schlager
TTITLE0=Für jedes Herz das einsam ist
TTITLE1=Mich küsst ein Sonnenstrahl
TTITLE2=Wenn ich träume
TTITLE3=Verlier die Hoffnung nie
TTITLE4=Amore Mio
TTITLE5=Was wär mein Leben ohne deine Liebe
TTITLE6=Ski-Twist
TTITLE7=Lebwohl Maria
TTITLE8=Heut geht es rund
TTITLE9=Eine Nacht in deinen Armen
TTITLE10=Trau dich doch
TTITLE11=Ich schlaf Herz an Herz mit dir ein
TTITLE12=Ich will dich für immer
TTITLE13=Weil ich dich brauch zum Leben
EXTD=YEAR: 2000
EXTT0=
EXTT1=
EXTT2=
EXTT3=
EXTT4=
EXTT5=
EXTT6=
EXTT7=
EXTT8=
EXTT9=
EXTT10=
EXTT11=
EXTT12=
EXTT13=
PLAYORDER=
